<?xml version="1.0" encoding="iso-8859-1"?>
<!-- Generator: Adobe Illustrator 17.1.0, SVG Export Plug-In . SVG Version: 6.00 Build 0)  -->
<!DOCTYPE svg PUBLIC "-//W3C//DTD SVG 1.1//EN" "http://www.w3.org/Graphics/SVG/1.1/DTD/svg11.dtd">
<svg version="1.1" id="Capa_1" xmlns="http://www.w3.org/2000/svg" xmlns:xlink="http://www.w3.org/1999/xlink" x="0px" y="0px"
	 viewBox="0 0 375.296 375.296" style="enable-background:new 0 0 375.296 375.296;" xml:space="preserve">
<path d="M367.449,75.397l-0.111-3.777l-26.425-6.667l25.193-3.555l-1.455-5.452c-3.5-13.115-9.996-24.488-19.311-33.803
	C331.062,7.864,311.205,0,289.427,0c-5.286,0-10.686,0.462-16.049,1.374l-3.917,0.666l-1.803,30.26l-8.406-27.617l-4.987,1.868
	c-15.141,5.671-29.436,14.96-41.337,26.862L187.45,58.89l-4.296,59.766l-15.698-39.771l-49.967,49.967
	c-0.125,0.125-0.248,0.255-0.37,0.385l-1.38,1.417l-8.197,83.188l-15.009-40.575l-3.879,15.869
	c-6.102,24.961-8.126,49.386-8.791,61.724c-0.183,3.408-0.307,6.743-0.377,9.918l-68.628,90.451
	c-5.007,6.6-3.717,16.009,2.883,21.016c2.711,2.057,5.896,3.051,9.055,3.051c4.531,0,9.011-2.046,11.961-5.935l61.789-81.438
	c1.279,0.026,2.678,0.039,4.216,0.039c0.001,0,0.002,0,0.004,0c29.023,0,87.468-5.53,122.444-26.256l10.191-6.039l-32.349-8.74
	l44.978-4.333l68.659-68.659l-38.821-13.466l58.3-6l1.268-1.308C356.591,131.325,368.259,102.98,367.449,75.397z"/>
<g>
</g>
<g>
</g>
<g>
</g>
<g>
</g>
<g>
</g>
<g>
</g>
<g>
</g>
<g>
</g>
<g>
</g>
<g>
</g>
<g>
</g>
<g>
</g>
<g>
</g>
<g>
</g>
<g>
</g>
</svg>
